<svg width="256" height="256" viewBox="0 0 256 256" fill="none" xmlns="http://www.w3.org/2000/svg">
<rect width="256" height="256" fill="#3981F7"/>
<path d="M218.413 210.132L170.824 163.304C183.286 149.765 190.943 131.859 190.943 112.155C190.937 70.0047 156.219 35.8401 113.39 35.8401C70.5596 35.8401 35.8418 70.0047 35.8418 112.155C35.8418 154.305 70.5596 188.47 113.39 188.47C131.895 188.47 148.868 182.069 162.2 171.428L209.973 218.44C212.301 220.733 216.08 220.733 218.407 218.44C220.741 216.147 220.741 212.425 218.413 210.132ZM113.39 176.728C77.1508 176.728 47.7736 147.818 47.7736 112.155C47.7736 76.4919 77.1508 47.5816 113.39 47.5816C149.629 47.5816 179.005 76.4919 179.005 112.155C179.005 147.818 149.629 176.728 113.39 176.728Z" fill="white" stroke="white" stroke-width="5.12"/>
</svg>
